<svg width="12" height="12" viewBox="0 0 12 12" fill="none" xmlns="http://www.w3.org/2000/svg">
<path fill-rule="evenodd" clip-rule="evenodd" d="M11.8138 1.0851C12.0621 0.836869 12.0621 0.434406 11.8138 0.186174C11.5656 -0.062058 11.1631 -0.062058 10.9149 0.186174L6 5.10107L1.0851 0.186174C0.836869 -0.062058 0.434406 -0.062058 0.186174 0.186174C-0.062058 0.434406 -0.062058 0.836869 0.186174 1.0851L5.10107 6L0.186174 10.9149C-0.062058 11.1631 -0.062058 11.5656 0.186174 11.8138C0.434406 12.0621 0.836869 12.0621 1.0851 11.8138L6 6.89893L10.9149 11.8138C11.1631 12.0621 11.5656 12.0621 11.8138 11.8138C12.0621 11.5656 12.0621 11.1631 11.8138 10.9149L6.89893 6L11.8138 1.0851Z" fill="#8A94A6"/>
</svg>
