<svg width="106" height="20" viewBox="0 0 106 20" fill="none" xmlns="http://www.w3.org/2000/svg">
<path d="M11.9356 16.9411V19.7646H0L0 -5.87987e-05H3.35139L3.35139 16.9411H11.9356Z" fill="#0F1415"/>
<path fill-rule="evenodd" clip-rule="evenodd" d="M26.1644 15.5294H23.107C22.9306 16.1176 22.5778 16.5882 21.931 16.8824C21.4019 17.2353 20.6963 17.4118 19.932 17.4118C18.8148 17.4118 17.9329 17.0588 17.2861 16.3529C16.6394 15.6471 16.2866 14.7647 16.2866 13.5882V13.4118H26.282V12.3529C26.282 10.2353 25.694 8.52941 24.5181 7.23529C23.3421 6 21.7546 5.35294 19.7556 5.35294C17.6977 5.35294 16.1102 6.05882 14.8755 7.35294C13.6408 8.64706 13.0528 10.4118 13.0528 12.7059C13.0528 15 13.6408 16.7647 14.8755 18.0588C16.1102 19.3529 17.7565 20 19.8732 20C21.5195 20 22.9306 19.5882 24.1065 18.7647C25.2824 17.9412 25.988 16.8824 26.1644 15.5294ZM17.4037 8.82353C17.9917 8.17647 18.8148 7.88236 19.7556 7.88236C20.7551 7.88236 21.5195 8.17647 22.1662 8.82353C22.7542 9.41177 23.0482 10.2941 23.107 11.2941H16.3454C16.4042 10.2941 16.757 9.47059 17.4037 8.82353Z" fill="#0F1415"/>
<path fill-rule="evenodd" clip-rule="evenodd" d="M33.6315 19.2941C34.3958 19.7059 35.2778 19.9412 36.3361 19.9412C38.1588 19.9412 39.5699 19.2941 40.6283 18.0588C41.6866 16.7647 42.2158 15 42.2158 12.7647C42.2158 10.5294 41.6866 8.70587 40.6283 7.41175C39.5699 6.05881 38.1588 5.41175 36.3361 5.41175C35.2778 5.41175 34.3958 5.58822 33.6315 6.05881C32.8671 6.5294 32.2792 7.11763 31.8676 7.94116H31.8088V0.0588093H28.575V19.7647H31.75V17.3529H31.8088C32.2204 18.2353 32.8671 18.8235 33.6315 19.2941ZM35.3366 8.05881C36.3949 8.05881 37.2769 8.47058 37.9236 9.29411C38.5704 10.1765 38.8644 11.2353 38.8644 12.647C38.8644 14.0588 38.5704 15.1765 37.9236 16C37.2769 16.8235 36.3949 17.2353 35.3366 17.2353C34.2783 17.2353 33.3963 16.8235 32.7495 16C32.1028 15.1765 31.75 14.1176 31.75 12.7059C31.75 11.2941 32.1028 10.1765 32.7495 9.35293C33.3963 8.47058 34.2783 8.05881 35.3366 8.05881Z" fill="#0F1415"/>
<path fill-rule="evenodd" clip-rule="evenodd" d="M56.856 15.5294H53.7986C53.6222 16.1176 53.2106 16.5882 52.6815 16.8824C52.1523 17.2353 51.4468 17.4118 50.6824 17.4118C49.5653 17.4118 48.6833 17.0588 48.0366 16.3529C47.3898 15.6471 47.037 14.7647 47.037 13.5882V13.4118H56.9736V12.3529C56.9736 10.2353 56.3856 8.52941 55.2097 7.23529C54.0338 6 52.4463 5.35294 50.4472 5.35294C48.3894 5.35294 46.8019 6 45.5671 7.35294C44.3324 8.64706 43.7444 10.4118 43.7444 12.7059C43.7444 15 44.3324 16.7647 45.5671 18.0588C46.8019 19.3529 48.4481 20 50.5648 20C52.2699 20 53.681 19.5882 54.7981 18.7647C55.9741 17.9412 56.6208 16.8235 56.856 15.5294ZM48.0954 8.82353C48.6833 8.17647 49.5065 7.88236 50.4472 7.88236C51.4468 7.88236 52.2111 8.17647 52.8579 8.82353C53.4458 9.41177 53.7398 10.2941 53.7986 11.2941H47.037C47.0958 10.2941 47.4486 9.47059 48.0954 8.82353Z" fill="#0F1415"/>
<path fill-rule="evenodd" clip-rule="evenodd" d="M60.2074 17.9412C61.2657 19.2941 62.7356 19.9412 64.4995 19.9412C65.4991 19.9412 66.4398 19.7059 67.2629 19.2353C68.0273 18.7647 68.6153 18.1765 69.0268 17.3529H69.0856V19.7647H72.2606V0.117634H69.0268V7.94116H68.968C68.5565 7.11763 67.9685 6.5294 67.2041 6.05881C66.4398 5.58822 65.4991 5.35293 64.4995 5.35293C62.7356 5.35293 61.3245 5.99999 60.2074 7.35293C59.0903 8.70587 58.5611 10.4706 58.5611 12.647C58.5611 14.8235 59.1491 16.5882 60.2074 17.9412ZM62.8532 9.29411C63.5 8.47058 64.3819 8.05881 65.4403 8.05881C66.4986 8.05881 67.3805 8.47058 68.0273 9.29411C68.6741 10.1765 69.0268 11.2941 69.0268 12.647C69.0268 14.0588 68.6741 15.1765 68.0273 16C67.3805 16.8235 66.4986 17.2353 65.4403 17.2353C64.3819 17.2353 63.5 16.8235 62.8532 16C62.2065 15.1765 61.8537 14.0588 61.8537 12.647C61.8537 11.2353 62.2065 10.1176 62.8532 9.29411Z" fill="#0F1415"/>
<path fill-rule="evenodd" clip-rule="evenodd" d="M87.4889 15.5294H84.4315C84.2551 16.1176 83.9023 16.5882 83.2556 16.8824C82.7264 17.2353 82.0208 17.4118 81.2565 17.4118C80.1394 17.4118 79.2574 17.0588 78.6107 16.3529C77.9639 15.6471 77.6111 14.7647 77.6111 13.5882V13.4118H87.6065V12.3529C87.6065 10.2353 87.0185 8.52941 85.8426 7.23529C84.6667 6 83.0792 5.35294 81.0801 5.35294C79.0222 5.35294 77.4347 6 76.2 7.35294C74.9653 8.64706 74.3773 10.4118 74.3773 12.7059C74.3773 15 74.9653 16.7647 76.2 18.0588C77.4347 19.3529 79.081 20 81.1977 20C82.844 20 84.2551 19.5882 85.431 18.7647C86.6069 17.9412 87.2537 16.8235 87.4889 15.5294ZM78.7282 8.82353C79.3162 8.17647 80.1394 7.88236 81.0801 7.88236C82.0796 7.88236 82.844 8.17647 83.4907 8.82353C84.0787 9.41177 84.3727 10.2941 84.4315 11.2941H77.6699C77.7287 10.2941 78.0815 9.47059 78.7282 8.82353Z" fill="#0F1415"/>
<path d="M101.718 5.52937L96.6611 19.8235H93.0746L88.0181 5.52937H91.4871L94.8384 16.7647H94.8972L98.2486 5.52937H101.718Z" fill="#0F1415"/>
<path d="M102.464 0.0568848L105.817 0.0568848V3.40827L102.464 3.40827V0.0568848Z" fill="#AC0033"/>
</svg>
