<svg width="18" height="18" viewBox="0 0 18 18" fill="none" xmlns="http://www.w3.org/2000/svg">
<path fill-rule="evenodd" clip-rule="evenodd" d="M8.80004 0.599976C8.52389 0.599976 8.30004 0.823833 8.30004 1.09998V8.29997H1.10004C0.823894 8.29997 0.600037 8.52383 0.600037 8.79998V9.19997C0.600037 9.47612 0.823894 9.69997 1.10004 9.69997H8.30004V16.9C8.30004 17.1761 8.52389 17.4 8.80004 17.4H9.20004C9.47618 17.4 9.70004 17.1761 9.70004 16.9V9.69997H16.9C17.1762 9.69997 17.4 9.47612 17.4 9.19997V8.79998C17.4 8.52383 17.1762 8.29998 16.9 8.29998H9.70004V1.09998C9.70004 0.823833 9.47618 0.599976 9.20004 0.599976H8.80004Z" fill="white"/>
</svg>
