<svg width="22" height="20" viewBox="0 0 22 20" fill="none" xmlns="http://www.w3.org/2000/svg">
<path fill-rule="evenodd" clip-rule="evenodd" d="M20.9705 0.224034C21.1834 0.209589 21.3931 0.282352 21.5437 0.423307C21.6943 0.56433 21.7707 0.759236 21.7531 0.956897L21.4776 4.04368C21.4459 4.39815 21.1259 4.66636 20.7491 4.66643C20.7289 4.66643 20.7085 4.66569 20.6879 4.66407C20.2852 4.6331 19.9858 4.30523 20.0191 3.93168L20.1301 2.68881L14.7589 7.67769C14.4898 7.92762 14.059 7.94442 13.7684 7.71599L8.05202 3.22549L1.49352 9.30937C1.35062 9.44192 1.16347 9.50817 0.976167 9.50817C0.788869 9.50817 0.601642 9.44186 0.458742 9.30937C0.173014 9.04432 0.173014 8.61453 0.458742 8.34948L7.49352 1.8238C7.76267 1.57413 8.19325 1.55754 8.48376 1.78584L14.1998 6.27606L19.1147 1.71092L17.7196 1.80559C17.3167 1.83172 16.9659 1.5521 16.9365 1.17821C16.9071 0.804318 17.21 0.479139 17.6129 0.451794L20.9705 0.224034ZM5.97286 8.34949C6.18217 8.15545 6.49695 8.09741 6.77029 8.20235C7.04363 8.30743 7.22195 8.55487 7.22188 8.8294V19.0991C7.22188 19.4739 6.89429 19.7778 6.49021 19.7778H3.44997C3.0459 19.7778 2.71831 19.4739 2.71831 19.0991V11.6497C2.71831 11.4697 2.79544 11.2971 2.93262 11.1697L5.97286 8.34949ZM10.0484 8.3495C9.83919 8.1554 9.52456 8.09742 9.251 8.20236C8.97766 8.30744 8.79934 8.55489 8.79934 8.82948V19.0991C8.79934 19.4739 9.12693 19.7778 9.53101 19.7778H12.5713C12.9754 19.7778 13.303 19.4739 13.303 19.0991V11.6497C13.303 11.4697 13.2259 11.2971 13.0887 11.1698L10.0484 8.3495ZM18.1345 8.34949C18.3438 8.15545 18.6585 8.09741 18.9319 8.20235C19.2054 8.30743 19.3836 8.55487 19.3835 8.8294V19.099C19.3835 19.4738 19.0559 19.7777 18.6519 19.7777H15.6116C15.2075 19.7777 14.8799 19.4738 14.8799 19.099V11.6497C14.8799 11.4697 14.957 11.2971 15.0942 11.1698L18.1345 8.34949Z" fill="white"/>
</svg>
