<svg width="22" height="20" viewBox="0 0 22 20" fill="none" xmlns="http://www.w3.org/2000/svg">
<path fill-rule="evenodd" clip-rule="evenodd" d="M11.6084 0.22229C11.2719 0.224347 10.9998 0.496513 10.9998 0.832848V9.38732C10.9998 9.72584 11.2719 10.0001 11.6084 10.0001H20.1669C20.5034 10.0001 20.7776 9.72584 20.7776 9.38732C20.4754 4.46425 16.5347 0.524416 11.6084 0.22229ZM21.1529 10.9778H13.5579C13.2259 10.9778 12.9554 11.2595 12.9554 11.6051C12.9554 11.781 13.0272 11.9396 13.1392 12.0539L18.4873 17.6219C18.5971 17.7452 18.7558 17.8223 18.9292 17.8223C19.1384 17.8223 19.3222 17.7122 19.4301 17.545C20.7449 15.9559 21.5905 13.9378 21.7427 11.7172C21.7512 11.6798 21.7554 11.6425 21.7554 11.605C21.7554 11.2595 21.4869 10.9778 21.1529 10.9778ZM9.72138 10.6435L15.7217 16.6341C15.8255 16.7398 15.8887 16.8841 15.8887 17.0408C15.8887 17.2177 15.8093 17.3762 15.6829 17.482C14.0454 18.9116 11.9027 19.7778 9.55635 19.7778C4.4136 19.7778 0.244263 15.6133 0.244263 10.4788C0.244263 5.53944 4.10395 1.49699 8.97791 1.20007C9.29773 1.20007 9.55635 1.45833 9.55635 1.77757L9.55851 10.2389C9.55851 10.3954 9.61958 10.5398 9.72138 10.6435Z" fill="white"/>
</svg>
