<svg width="22" height="20" viewBox="0 0 22 20" fill="none" xmlns="http://www.w3.org/2000/svg">
<path fill-rule="evenodd" clip-rule="evenodd" d="M20.4685 0.222229C21.1793 0.222229 21.7554 0.824693 21.7554 1.56796V5.47907V14.5209V18.4321C21.7554 19.1753 21.1793 19.7778 20.4685 19.7778H19.1311C18.4204 19.7778 17.8443 19.1753 17.8443 18.4321V14.5209V5.47907V1.56796C17.8443 0.824693 18.4204 0.222229 19.1311 0.222229H20.4685ZM14.6019 4.13334C15.3126 4.13334 15.8887 4.7358 15.8887 5.47907V18.4321C15.8887 19.1753 15.3126 19.7778 14.6019 19.7778H13.2644C12.5537 19.7778 11.9776 19.1753 11.9776 18.4321V5.47907C11.9776 4.7358 12.5537 4.13334 13.2644 4.13334H14.6019ZM10.022 8.48439C10.022 7.70137 9.44593 7.06667 8.73519 7.06667H7.39778C6.68703 7.06667 6.11093 7.70137 6.11093 8.48439V18.3601C6.11093 19.1431 6.68703 19.7778 7.39778 19.7778H8.73519C9.44593 19.7778 10.022 19.1431 10.022 18.3601V8.48439ZM4.15556 12.4101C4.15556 11.619 3.53565 10.9778 2.77093 10.9778H1.62908C0.864357 10.9778 0.244446 11.619 0.244446 12.4101V18.3454C0.244446 19.1365 0.864357 19.7778 1.62908 19.7778H2.77093C3.53565 19.7778 4.15556 19.1365 4.15556 18.3454V12.4101Z" fill="white"/>
</svg>
